<svg width="166" height="29" viewBox="0 0 166 29" fill="none" xmlns="http://www.w3.org/2000/svg">
<path d="M166 14.3183L148.331 28.8421V23.7517C148.33 22.9488 148.508 22.1557 148.85 21.4294C149.192 20.703 149.691 20.0614 150.311 19.5505L156.641 14.3183L150.36 9.25272C149.726 8.74102 149.214 8.0935 148.863 7.35784C148.511 6.62217 148.329 5.81709 148.331 5.00186V0L166 14.3183Z" fill="#5B46F9"/>
<path d="M12.0477 4.69019V7.84646H3.93205V12.8519H10.1667V15.955H3.93205V24.2017H0V4.69019H12.0477Z" fill="#1C1C8E"/>
<path d="M19.6779 23.1105C18.1682 22.2708 16.9127 21.0397 16.0434 19.5469C15.1657 17.9772 14.7048 16.2088 14.7048 14.4104C14.7048 12.612 15.1657 10.8436 16.0434 9.27395C16.9127 7.7811 18.1682 6.55007 19.6779 5.7103C21.2234 4.86666 22.9561 4.42456 24.7169 4.42456C26.4778 4.42456 28.2104 4.86666 29.756 5.7103C31.2582 6.55018 32.5045 7.78178 33.3621 9.27395C34.2584 10.8331 34.7173 12.6052 34.6905 14.4033C34.7197 16.2108 34.2607 17.9926 33.3621 19.5611C32.5011 21.0554 31.2496 22.2873 29.7418 23.1247C28.1988 23.9684 26.4684 24.4105 24.7098 24.4105C22.9513 24.4105 21.2209 23.9684 19.6779 23.1247V23.1105ZM27.8254 20.1066C28.7274 19.564 29.4542 18.7733 29.9189 17.8288C30.4433 16.7595 30.7033 15.5799 30.677 14.3892C30.7044 13.2029 30.4443 12.0276 29.9189 10.9637C29.4542 10.0265 28.7268 9.24493 27.8254 8.71425C26.8798 8.18015 25.8081 7.90978 24.7222 7.93138C23.632 7.91035 22.5559 8.1806 21.6049 8.71425C20.6899 9.23774 19.9503 10.0204 19.4795 10.9637C18.957 12.0285 18.6982 13.2033 18.725 14.3892C18.6995 15.5794 18.9582 16.7585 19.4795 17.8288C19.9503 18.7794 20.6892 19.5712 21.6049 20.1066C22.5525 20.6501 23.6301 20.9256 24.7222 20.9036C25.8063 20.9238 26.8754 20.6482 27.8148 20.1066H27.8254Z" fill="#1C1C8E"/>
<path d="M49.1967 24.2015L44.8927 16.596H43.0471V24.2015H39.1505V4.69H46.4761C47.8062 4.65075 49.1271 4.92245 50.3338 5.4835C51.3249 5.94979 52.1557 6.69924 52.7214 7.63727C53.2935 8.64095 53.5674 9.78702 53.5109 10.9409C53.4545 12.0949 53.07 13.2087 52.4025 14.1517C51.5783 15.2294 50.4005 15.982 49.0762 16.2772L53.7451 24.1873L49.1967 24.2015ZM43.0471 13.6629H46.3167C47.3794 13.6629 48.1717 13.4066 48.6937 12.8942C48.9615 12.6116 49.1691 12.2774 49.3037 11.912C49.4383 11.5466 49.4971 11.1576 49.4765 10.7687C49.4993 10.3861 49.4414 10.0029 49.3065 9.64406C49.1717 9.28522 48.9628 8.95875 48.6937 8.68582C48.1717 8.19225 47.3794 7.94546 46.3167 7.94546H43.0471V13.6629Z" fill="#1C1C8E"/>
<path d="M83.6359 4.69019L78.1842 24.2017H73.5791L69.895 10.3084L66.0657 24.2017L61.4606 24.23L56.2249 4.69019H60.4191L63.8552 19.841L67.8262 4.69019H72.1869L75.9312 19.7524L79.3851 4.69019H83.6359Z" fill="#1C1C8E"/>
<path d="M97.5646 20.4819H89.7926L88.5067 24.2014H84.3975L91.4292 4.66162H95.9882L103.006 24.2014H98.8682L97.5646 20.4819ZM96.5019 17.3505L93.668 9.20297L90.8341 17.3505H96.5019Z" fill="#1C1C8E"/>
<path d="M116.513 24.2015L112.209 16.596H110.363V24.2015H106.449V4.69006H113.775C115.108 4.64914 116.433 4.92088 117.643 5.48355C118.634 5.95086 119.466 6.7 120.034 7.63733C120.607 8.64094 120.881 9.78741 120.824 10.9416C120.767 12.0958 120.381 13.2096 119.712 14.1518C118.887 15.2295 117.71 15.9821 116.385 16.2772L121.054 24.1874L116.513 24.2015ZM110.363 13.6629H113.636C114.699 13.6629 115.489 13.4079 116.01 12.8942C116.278 12.6116 116.485 12.2774 116.62 11.912C116.754 11.5466 116.813 11.1577 116.793 10.7688C116.815 10.3861 116.758 10.0029 116.623 9.64411C116.488 9.28527 116.279 8.9588 116.01 8.68588C115.489 8.19348 114.696 7.94551 113.636 7.94551H110.363V13.6629Z" fill="#1C1C8E"/>
<path d="M137.434 5.89106C138.949 6.65019 140.204 7.84251 141.04 9.31655C141.914 10.8928 142.353 12.6727 142.312 14.4743C142.354 16.267 141.915 18.0383 141.04 19.6037C140.196 21.0641 138.942 22.2451 137.434 23.0008C135.754 23.83 133.898 24.2419 132.025 24.2017H125.206V4.69019H132.025C133.898 4.64994 135.754 5.06187 137.434 5.89106ZM136.637 19.1963C137.757 18.0792 138.316 16.5052 138.316 14.4743C138.316 12.4433 137.757 10.854 136.637 9.70622C135.522 8.56084 133.939 7.98816 131.887 7.98816H129.117V20.8754H131.887C133.934 20.8754 135.518 20.3157 136.637 19.1963Z" fill="#1C1C8E"/>
</svg>
